<svg id="visual" viewBox="0 0 1300 900" width="1300" height="900" xmlns="http://www.w3.org/2000/svg" xmlns:xlink="http://www.w3.org/1999/xlink" version="1.1"><path d="M0 46L108.3 43C216.7 40 433.3 34 650 41.5C866.7 49 1083.3 70 1191.7 80.5L1300 91L1300 0L1191.7 0C1083.3 0 866.7 0 650 0C433.3 0 216.7 0 108.3 0L0 0Z" fill="#6152c6"></path><path d="M0 73L108.3 80.5C216.7 88 433.3 103 650 130C866.7 157 1083.3 196 1191.7 215.5L1300 235L1300 89L1191.7 78.5C1083.3 68 866.7 47 650 39.5C433.3 32 216.7 38 108.3 41L0 44Z" fill="#5041bd"></path><path d="M0 460L108.3 436C216.7 412 433.3 364 650 368.5C866.7 373 1083.3 430 1191.7 458.5L1300 487L1300 233L1191.7 213.5C1083.3 194 866.7 155 650 128C433.3 101 216.7 86 108.3 78.5L0 71Z" fill="#3e2fb4"></path><path d="M0 487L108.3 470.5C216.7 454 433.3 421 650 436C866.7 451 1083.3 514 1191.7 545.5L1300 577L1300 485L1191.7 456.5C1083.3 428 866.7 371 650 366.5C433.3 362 216.7 410 108.3 434L0 458Z" fill="#291cab"></path><path d="M0 613L108.3 611.5C216.7 610 433.3 607 650 616C866.7 625 1083.3 646 1191.7 656.5L1300 667L1300 575L1191.7 543.5C1083.3 512 866.7 449 650 434C433.3 419 216.7 452 108.3 468.5L0 485Z" fill="#201c9c"></path><path d="M0 667L108.3 664C216.7 661 433.3 655 650 665.5C866.7 676 1083.3 703 1191.7 716.5L1300 730L1300 665L1191.7 654.5C1083.3 644 866.7 623 650 614C433.3 605 216.7 608 108.3 609.5L0 611Z" fill="#181b8e"></path><path d="M0 901L108.3 901C216.7 901 433.3 901 650 901C866.7 901 1083.3 901 1191.7 901L1300 901L1300 728L1191.7 714.5C1083.3 701 866.7 674 650 663.5C433.3 653 216.7 659 108.3 662L0 665Z" fill="#111a7f"></path></svg>